<svg xmlns="http://www.w3.org/2000/svg" viewBox="0 0 476.53 43.85"><defs><style>.cls-1{fill:#003169;}.cls-2{fill:#bd1f31;}</style></defs><title>a1simple_logo</title><g id="Capa_2" data-name="Capa 2"><g id="Capa_1-2" data-name="Capa 1"><path class="cls-1" d="M99.75,43.23a1.74,1.74,0,0,1-1.88-1.88V6.89a.55.55,0,0,0-.63-.62h-9.4a1.86,1.86,0,0,1-1.37-.5A1.86,1.86,0,0,1,86,4.39V2.51a1.83,1.83,0,0,1,.5-1.38,1.86,1.86,0,0,1,1.37-.5h26a1.88,1.88,0,0,1,1.38.5,1.87,1.87,0,0,1,.5,1.38V4.39a1.9,1.9,0,0,1-.5,1.38,1.88,1.88,0,0,1-1.38.5h-9.39a.55.55,0,0,0-.63.62V41.35a1.74,1.74,0,0,1-1.88,1.88Z"/><path class="cls-1" d="M144.85,43.23a2.46,2.46,0,0,1-2.32-1.7l-7.39-15.91a1.33,1.33,0,0,0-1.32-.87h-5.95a.55.55,0,0,0-.62.62v16a1.74,1.74,0,0,1-1.88,1.88h-2.2a1.73,1.73,0,0,1-1.87-1.88V2.51a1.83,1.83,0,0,1,.5-1.38,1.86,1.86,0,0,1,1.37-.5H136a12,12,0,0,1,4.69.91A11.38,11.38,0,0,1,144.5,4,11.61,11.61,0,0,1,147,7.83a12.26,12.26,0,0,1,.91,4.7,11.77,11.77,0,0,1-1.71,6.33,11.6,11.6,0,0,1-4.31,4.19c-.66.38-.81,1-.43,1.82L149,41a1.67,1.67,0,0,1,.07,1.6,1.4,1.4,0,0,1-1.32.65h-2.88Zm-9.21-24.12a6.42,6.42,0,0,0,2.41-.47,6.06,6.06,0,0,0,2-1.35,6.8,6.8,0,0,0,1.41-2.1,6.65,6.65,0,0,0,.53-2.66,6.23,6.23,0,0,0-.53-2.6,6.12,6.12,0,0,0-3.45-3.23,6.8,6.8,0,0,0-2.41-.43h-7.71a.55.55,0,0,0-.62.62V18.48a.55.55,0,0,0,.62.63Z"/><path class="cls-1" d="M183.44,43.23a2,2,0,0,1-1.41.43,3.62,3.62,0,0,1-1.48-.43L162.32,32.58a.66.66,0,0,0-.78,0,1.19,1.19,0,0,0-.47.62l-2.57,8.52a2,2,0,0,1-2.13,1.51H153.3c-1.21,0-1.65-.59-1.31-1.76L164.52,2.32A2.42,2.42,0,0,1,165.36,1a2.67,2.67,0,0,1,1.41-.34h4.39a2.58,2.58,0,0,1,1.41.34,2.42,2.42,0,0,1,.84,1.35l12,37.46a2,2,0,0,1-.5,2.26ZM169.59,8.58c-.12-.46-.33-.68-.63-.68s-.5.22-.62.68l-5,16.54a1.74,1.74,0,0,0-.06,1.22A1.46,1.46,0,0,0,164,27l11.78,6.89c.46.29.79.33,1,.1a.79.79,0,0,0,.19-.79Z"/><path class="cls-1" d="M193.4,43.23a1.74,1.74,0,0,1-1.88-1.88V2.51a1.83,1.83,0,0,1,.5-1.38,1.87,1.87,0,0,1,1.38-.5h11a16.61,16.61,0,0,1,6.29,1.16A14.44,14.44,0,0,1,215.51,5a14,14,0,0,1,3.1,4.76,16,16,0,0,1,1.1,5.95V28.19a16,16,0,0,1-1.1,5.95,13.91,13.91,0,0,1-3.1,4.76,14.44,14.44,0,0,1-4.86,3.16,16.42,16.42,0,0,1-6.29,1.16h-11Zm20.35-27.57a10.68,10.68,0,0,0-.69-3.94,8.14,8.14,0,0,0-4.91-4.83,11.2,11.2,0,0,0-3.79-.63h-6.27a.55.55,0,0,0-.62.63V37a.55.55,0,0,0,.62.63h6.27a11,11,0,0,0,3.79-.63,8.32,8.32,0,0,0,3-1.82,8,8,0,0,0,1.94-2.94,10.91,10.91,0,0,0,.69-4V15.66Z"/><path class="cls-1" d="M251,2.51a1.83,1.83,0,0,1,.5-1.38,1.86,1.86,0,0,1,1.37-.5h2.2a1.9,1.9,0,0,1,1.38.5,1.87,1.87,0,0,1,.5,1.38V29.44a15.25,15.25,0,0,1-1.1,5.86,12.89,12.89,0,0,1-3.07,4.54,14.13,14.13,0,0,1-4.67,2.95,16.87,16.87,0,0,1-11.77,0,14.13,14.13,0,0,1-4.67-2.95,12.89,12.89,0,0,1-3.07-4.54,15.25,15.25,0,0,1-1.1-5.86V2.51A1.83,1.83,0,0,1,228,1.13a1.86,1.86,0,0,1,1.37-.5h2.2a1.86,1.86,0,0,1,1.37.5,1.83,1.83,0,0,1,.5,1.38V29.44a9,9,0,0,0,2.26,6.27,9.74,9.74,0,0,0,13,0A9,9,0,0,0,251,29.44V2.51Z"/><path class="cls-1" d="M290.8,36.33a1.71,1.71,0,0,1,.57,1.38A1.94,1.94,0,0,1,290.8,39a19.69,19.69,0,0,1-4.7,3.45,14.67,14.67,0,0,1-7,1.44,14.48,14.48,0,0,1-5.7-1.1,13.36,13.36,0,0,1-4.54-3.07,14.07,14.07,0,0,1-3-4.76,16.5,16.5,0,0,1-1.09-6.1V15a16.39,16.39,0,0,1,1.09-6,14.07,14.07,0,0,1,3-4.76,13.73,13.73,0,0,1,4.54-3.1A14.32,14.32,0,0,1,279.15,0a16.16,16.16,0,0,1,3.76.41,16.74,16.74,0,0,1,3.07,1,12.85,12.85,0,0,1,2.41,1.41,16.37,16.37,0,0,1,1.72,1.47,1.64,1.64,0,0,1,0,2.63l-1.44,1.44a1.9,1.9,0,0,1-1.19.66,2,2,0,0,1-1.31-.66,16.41,16.41,0,0,0-2.48-1.75,8.73,8.73,0,0,0-4.54-1,8.23,8.23,0,0,0-3.54.72,7.83,7.83,0,0,0-2.63,2,8.9,8.9,0,0,0-1.66,3,11.88,11.88,0,0,0-.56,3.66V28.82A10.09,10.09,0,0,0,273,35.61a7.66,7.66,0,0,0,6.17,2.6,9.68,9.68,0,0,0,4.67-1,16.31,16.31,0,0,0,3.1-2.1,2.18,2.18,0,0,1,1.28-.56,1.67,1.67,0,0,1,1.35.56Z"/><path class="cls-1" d="M323.38,36.33a1.73,1.73,0,0,1,.56,1.38,1.93,1.93,0,0,1-.56,1.25,19.89,19.89,0,0,1-4.7,3.45,14.74,14.74,0,0,1-7,1.44,14.55,14.55,0,0,1-5.7-1.1,13.45,13.45,0,0,1-4.54-3.07,14.2,14.2,0,0,1-3-4.76,16.3,16.3,0,0,1-1.1-6.1V15a16.19,16.19,0,0,1,1.1-6,14.2,14.2,0,0,1,3-4.76A13.83,13.83,0,0,1,306,1.13,14.39,14.39,0,0,1,311.72,0a16.1,16.1,0,0,1,3.76.41,16.74,16.74,0,0,1,3.07,1A12.54,12.54,0,0,1,321,2.85a16.58,16.58,0,0,1,1.73,1.47,1.65,1.65,0,0,1,0,2.63l-1.44,1.44a1.93,1.93,0,0,1-1.19.66,2,2,0,0,1-1.32-.66,16.23,16.23,0,0,0-2.47-1.75,8.76,8.76,0,0,0-4.54-1,8.23,8.23,0,0,0-3.54.72,7.73,7.73,0,0,0-2.63,2,8.57,8.57,0,0,0-1.66,3,11.59,11.59,0,0,0-.57,3.66V28.82a10,10,0,0,0,2.23,6.79,7.66,7.66,0,0,0,6.17,2.6,9.67,9.67,0,0,0,4.66-1,16,16,0,0,0,3.1-2.1,2.21,2.21,0,0,1,1.29-.56,1.67,1.67,0,0,1,1.35.56Z"/><path class="cls-1" d="M332.46,43.23a1.83,1.83,0,0,1-1.38-.51,1.86,1.86,0,0,1-.5-1.37V2.51a1.87,1.87,0,0,1,.5-1.38,1.87,1.87,0,0,1,1.38-.5h2.19a1.9,1.9,0,0,1,1.38.5,1.87,1.87,0,0,1,.5,1.38V41.35a1.74,1.74,0,0,1-1.88,1.88Z"/><path class="cls-1" d="M374.11,29.44A15.25,15.25,0,0,1,373,35.3,13,13,0,0,1,370,39.84a14.23,14.23,0,0,1-4.67,2.95,16.89,16.89,0,0,1-11.78,0,14.19,14.19,0,0,1-4.66-2.95,12.89,12.89,0,0,1-3.07-4.54,15.25,15.25,0,0,1-1.1-5.86v-15a15.29,15.29,0,0,1,1.1-5.86A13.07,13.07,0,0,1,348.84,4a14.33,14.33,0,0,1,4.66-2.94,16.75,16.75,0,0,1,11.78,0A14.37,14.37,0,0,1,370,4,13.21,13.21,0,0,1,373,8.55a15.29,15.29,0,0,1,1.09,5.86Zm-5.95-15a9.05,9.05,0,0,0-2.25-6.27,9.74,9.74,0,0,0-13,0,9,9,0,0,0-2.26,6.27v15a9,9,0,0,0,2.26,6.27,9.74,9.74,0,0,0,13,0,9,9,0,0,0,2.25-6.27Z"/><path class="cls-1" d="M407.63,43.23a2.05,2.05,0,0,1-1.41-.47,6.28,6.28,0,0,1-1.1-1.41L389.21,13.47c-.21-.33-.43-.46-.66-.38a.59.59,0,0,0-.34.63V41.35a1.74,1.74,0,0,1-1.88,1.88h-2.19a1.74,1.74,0,0,1-1.88-1.88V2.51a1.83,1.83,0,0,1,.5-1.38,1.87,1.87,0,0,1,1.38-.5h2.44a3.23,3.23,0,0,1,1.57.34,3.09,3.09,0,0,1,1.12,1.23L404.5,28.69a.57.57,0,0,0,.59.32c.23-.05.35-.23.35-.57V2.51a1.83,1.83,0,0,1,.5-1.38,1.86,1.86,0,0,1,1.37-.5h2.2a1.9,1.9,0,0,1,1.38.5,1.87,1.87,0,0,1,.5,1.38V41.35a1.74,1.74,0,0,1-1.88,1.88Z"/><path class="cls-1" d="M422,43.23a1.76,1.76,0,0,1-1.88-1.88V2.51a1.83,1.83,0,0,1,.51-1.38A1.86,1.86,0,0,1,422,.63h20.68a1.86,1.86,0,0,1,1.37.5,1.83,1.83,0,0,1,.51,1.38V4.39a1.86,1.86,0,0,1-.51,1.38,1.86,1.86,0,0,1-1.37.5h-16a.55.55,0,0,0-.62.62V18.17a.55.55,0,0,0,.62.62h14.72a1.74,1.74,0,0,1,1.88,1.88v1.88a1.73,1.73,0,0,1-1.88,1.88H426.73a.55.55,0,0,0-.62.63V37a.55.55,0,0,0,.62.63H444a1.73,1.73,0,0,1,1.88,1.88v1.88A1.74,1.74,0,0,1,444,43.23Z"/><path class="cls-1" d="M454.17,35.27a1.67,1.67,0,0,1,1.35-.56,2.16,2.16,0,0,1,1.28.56c.34.29.71.62,1.13,1a8.05,8.05,0,0,0,1.44,1,8.28,8.28,0,0,0,1.88.72,9.46,9.46,0,0,0,2.44.28,7.32,7.32,0,0,0,4.95-1.66,5.25,5.25,0,0,0,1.94-4.16,6,6,0,0,0-1.72-4.51,21.1,21.1,0,0,0-5.48-3.51A34.29,34.29,0,0,1,459.09,22a15.66,15.66,0,0,1-3.29-2.82,10.93,10.93,0,0,1-2.1-3.54,13.19,13.19,0,0,1-.72-4.54A10.89,10.89,0,0,1,453.79,7a10.33,10.33,0,0,1,2.38-3.54A12.09,12.09,0,0,1,460,.94a12.81,12.81,0,0,1,5-.94,12.62,12.62,0,0,1,6.11,1.38,17.6,17.6,0,0,1,4,2.88,1.64,1.64,0,0,1,0,2.63L473.65,8.4a1.51,1.51,0,0,1-2.5,0,15.88,15.88,0,0,0-2.51-1.76,7.21,7.21,0,0,0-3.7-1,6.7,6.7,0,0,0-2.53.47,6.84,6.84,0,0,0-2,1.22,5.47,5.47,0,0,0-1.31,1.73,4.48,4.48,0,0,0-.47,2,6.82,6.82,0,0,0,.4,2.44,5.94,5.94,0,0,0,1.26,2,10.06,10.06,0,0,0,2.19,1.72,25.2,25.2,0,0,0,3.29,1.63,36.57,36.57,0,0,1,4.57,2.38A15.82,15.82,0,0,1,473.71,24a10.59,10.59,0,0,1,2.1,3.51,13.19,13.19,0,0,1,.72,4.54,10.43,10.43,0,0,1-1,4.51,11.88,11.88,0,0,1-2.76,3.73,13.81,13.81,0,0,1-4.1,2.56,12.89,12.89,0,0,1-5,1A14.3,14.3,0,0,1,457,42.57a15.45,15.45,0,0,1-4.23-3.29,1.93,1.93,0,0,1-.56-1.25,1.67,1.67,0,0,1,.56-1.38Z"/><path class="cls-2" d="M31.55,43.23a1.94,1.94,0,0,1-1.41.43,3.62,3.62,0,0,1-1.47-.43L10.44,32.58a.66.66,0,0,0-.78,0,1.19,1.19,0,0,0-.47.62L6.62,41.72a2,2,0,0,1-2.13,1.51H1.42c-1.21,0-1.65-.59-1.31-1.76L12.64,2.32A2.37,2.37,0,0,1,13.48,1,2.67,2.67,0,0,1,14.89.63h4.39A2.58,2.58,0,0,1,20.69,1a2.42,2.42,0,0,1,.84,1.35l12,37.46A2,2,0,0,1,33,42ZM17.71,8.58c-.12-.46-.33-.68-.63-.68s-.5.22-.62.68l-5,16.54a1.74,1.74,0,0,0-.06,1.22,1.46,1.46,0,0,0,.62.66l11.78,6.89c.46.29.79.33,1,.1A.79.79,0,0,0,25,33.2Z"/><path class="cls-2" d="M37.44,43.23a1.74,1.74,0,0,1-1.88-1.88V39.47a1.73,1.73,0,0,1,1.88-1.88h8.15a.55.55,0,0,0,.62-.63V6.89a.55.55,0,0,0-.62-.62H37.44a1.9,1.9,0,0,1-1.38-.5,1.9,1.9,0,0,1-.5-1.38V2.51a1.87,1.87,0,0,1,.5-1.38,1.9,1.9,0,0,1,1.38-.5H50.28a1.87,1.87,0,0,1,1.38.5,1.83,1.83,0,0,1,.5,1.38V37a.56.56,0,0,0,.63.63h7.52a1.73,1.73,0,0,1,1.87,1.88v1.88a1.74,1.74,0,0,1-1.87,1.88Z"/></g></g></svg>